<svg xmlns="http://www.w3.org/2000/svg" width="499.808769" height="84.141751" viewBox="0 0 132.24107 22.262505"><g fill="#8600a7"><g letter-spacing="0" word-spacing="0"><path d="M32.777315 7.872427q-.146464.268518-.451597.268518-.18308 0-.414981-.134259t-.57365-.292928q-.329544-.170874-.793346-.305133-.463802-.146464-1.098479-.146464-.54924 0-.98863.146464-.439392.134259-.75673.378365-.305134.244107-.476008.57365-.15867.317339-.15867.695704 0 .476007.268518.793345.280722.317339.732319.54924.451597.231901 1.025247.41498.57365.170875 1.17171.378366.610267.195285 1.183917.439391.57365.244107 1.025247.610266.451597.36616.720114.903194.280722.524829.280722 1.269353 0 .854373-.305133 1.586692-.305133.720114-.903194 1.257148-.59806.524829-1.464638.829962-.866578.305133-2.001673.305133-1.293764 0-2.343421-.41498-1.049658-.427187-1.781977-1.086274l.512623-.829962q.097643-.15867.231901-.244107.134259-.085533.34175-.085533.219695 0 .463801.170874.244107.170875.585856.378365.353954.20749.854372.378365t1.244943.170875q.634677 0 1.110684-.15867.476008-.170874.793346-.451596.317338-.280723.463802-.646882.15867-.36616.15867-.78114 0-.512624-.280723-.842168-.268517-.341749-.720114-.57365-.451597-.244106-1.037452-.41498-.57365-.18308-1.183916-.378366-.598061-.195285-1.183916-.439391-.57365-.256312-1.025247-.634677-.451597-.378365-.73232-.927604-.268517-.561445-.268517-1.354791 0-.707909.292928-1.35479.292928-.659088.854372-1.1473.561445-.500419 1.379202-.793347.817756-.292927 1.867414-.292927 1.220532 0 2.184752.39057.976426.378365 1.684334 1.049658zM39.95635 18.393414q-1.464639 0-2.257985-.817757-.78114-.817756-.78114-2.355626v-7.5673h-1.48905q-.195284 0-.329543-.109847-.134258-.122053-.134258-.36616v-.866578l2.026083-.256311.500418-3.820266q.03652-.18308.15867-.292927.134258-.122054.341748-.122054h1.098479v4.259657h3.576159v1.574487h-3.576159v7.420835q0 .78114.378365 1.159505.378365.378365.976426.378365.341749 0 .585855-.085533.256312-.097643.439392-.20749.18308-.109849.305133-.195286.134258-.097642.2319-.097642.170875 0 .305134.20749l.634676 1.037452q-.561444.52483-1.35479.829962-.793346.292928-1.635513.292928zM50.09705 5.638854q1.35479 0 2.441063.451597 1.086274.451597 1.85521 1.281558.768934.829962 1.17171 2.013878.41498 1.171711.41498 2.624144 0 1.464639-.41498 2.63635-.402776 1.17171-1.17171 2.001672-.768936.829962-1.85521 1.281559-1.086273.439391-2.441064.439391-1.366996 0-2.465475-.439391-1.086273-.451597-1.855208-1.281559-.768935-.829962-1.183916-2.001672-.402776-1.171711-.402776-2.63635 0-1.452433.402776-2.624144.41498-1.183916 1.183916-2.013878.768935-.829961 1.855208-1.281558 1.09848-.451597 2.465475-.451597zm0 11.03361q1.830797 0 2.733991-1.220532.903194-1.232738.903194-3.429695 0-2.209164-.903194-3.4419-.903194-1.232738-2.733992-1.232738-.927604 0-1.623307.317338-.683498.317338-1.1473.9154-.451597.59806-.683499 1.476843-.219695.866578-.219695 1.965057 0 2.196957.903193 3.429695.9154 1.220532 2.770608 1.220532zM67.316546 8.031097q-.097642.134258-.195285.20749-.097642.07304-.268517.07304-.18308 0-.402775-.146464-.219696-.15867-.54924-.341749-.317338-.18308-.793346-.329544-.463802-.158669-1.1473-.158669-.915399 0-1.611102.329544-.695703.317338-1.17171.927604-.463803.610266-.70791 1.476844-.2319.866578-.2319 1.940646 0 1.12289.256311 2.001673.256312.866577.720114 1.464638.476008.585856 1.135095.903194.671293.305133 1.501254.305133.793346 0 1.30597-.18308.512623-.195285.842167-.427186.341749-.231901.561445-.414981.2319-.195285.451596-.195285.268518 0 .414981.20749l.610266.793346q-.402775.500418-.915399.854373-.512623.353954-1.110684.59806-.585855.231901-1.232737.34175-.646882.109847-1.318175.109847-1.159505 0-2.160342-.427186-.98863-.427186-1.72095-1.232737-.73232-.817757-1.1473-2.001673-.414981-1.183916-.414981-2.697376 0-1.379201.378365-2.550912.39057-1.17171 1.12289-2.013878.744524-.854372 1.818592-1.33038 1.086274-.476007 2.489886-.476007 1.305969 0 2.2946.427186 1.000836.41498 1.769772 1.183916zM72.52966.219691v10.582013h.561445q.244106 0 .402775-.060546.170875-.07304.353955-.280722l3.905702-4.186425q.170875-.20749.353955-.317338.195285-.122054.512623-.122054h1.965057l-4.552585 4.845513q-.329544.41498-.707909.646882.219696.146464.39057.341749.18308.18308.34175.427186l4.833307 6.10266h-1.940646q-.280723 0-.488213-.085533-.195285-.097643-.34175-.341749l-4.06437-5.065208q-.18308-.256312-.36616-.329544-.170875-.085533-.537035-.085533h-.622471v5.907375h-2.184752V.21998z" style="line-height:1.25;-inkscape-font-specification:Lato;font-variant-ligatures:normal;font-variant-caps:normal;font-variant-numeric:normal;font-feature-settings:normal;text-align:start" font-weight="400" font-size="25.4" font-family="Lato"/><path d="M85.31853 11.410433q-.646882.341749-.976426.829962-.323489.488212-.323489 1.061863 0 .39672.146464.701854.146464.298982.384515.506472.237956.20749.54309.317339.305132.103793.62247.103793.683499 0 1.226683-.250257.54924-.250161.95807-.671293zm5.638858 4.308478H89.90158q-.17693 0-.286777-.042286-.109848-.042286-.238052-.177025l-.884838-.890989q-.57365.55539-1.324325.884934-.744525.323393-1.641568.323393-.488213 0-.958166-.164724-.463802-.16482-.836016-.476007-.37231-.317339-.59806-.768935-.225847-.451597-.225847-1.019193 0-.427186.140409-.805551.146464-.38442.402776-.707909.256311-.323393.604115-.579704.3479-.256312.76288-.439392-.37231-.476007-.549239-.915399-.177025-.445542-.177025-.92155 0-.445446.158669-.836016.16482-.39057.469953-.677443.305133-.292928.738374-.457652.439391-.170874.982576-.170874.482062 0 .878783.158669.396625.152518.683498.40883.286777.256312.451597.59806.170875.335695.195285.701855l-.677443.134258q-.20134.049014-.298982-.18923-.042287-.15867-.14041-.329544-.0913-.170874-.244106-.311188-.146464-.140409-.360009-.2319-.20749-.0913-.488213-.0913-.305133 0-.55539.097642-.244106.097643-.421035.274668-.170875.170875-.262463.40883-.0913.231901-.0913.50657 0 .213544.049014.40883.049013.195284.152518.39672.109848.20134.274668.40883.164724.20749.396625.439392l2.514296 2.557063q.231901-.414981.37231-.860523.140314-.451597.18308-.897043.012494-.115999.07304-.18308.060546-.067274.170874-.067274h.665142q-.00961.701854-.219695 1.379202-.213545.671292-.616321 1.263298z" style="line-height:1.25" font-weight="400" font-size="12.7" font-family="sans-serif"/><path d="M96.193374 14.878282q.476008.549239 1.025247.768935.561445.219696 1.159506.219696.622471 0 1.12289-.219696.512623-.231901.878782-.720114.36616-.500418.561445-1.293764.195285-.793346.195285-1.916235 0-1.000837-.158669-1.69654-.15867-.707909-.476007-1.159506-.305133-.451596-.75673-.659087-.451597-.20749-1.049658-.20749-.793346 0-1.379201.353954-.57365.341749-1.12289 1.013042zm0-7.811406q.744525-.744524 1.647719-1.196121.903193-.451597 2.026083-.451597 1.086273 0 1.952851.439392.878783.427186 1.48905 1.232737.62247.805551.952014 1.952851.34175 1.135095.34175 2.550912 0 1.525665-.39057 2.782813-.378366 1.244943-1.086274 2.135932-.707909.890988-1.69654 1.3792-.976426.488214-2.184752.488214-.585856 0-1.049658-.122054-.463802-.109847-.854372-.317338-.39057-.20749-.720114-.488213-.329544-.292927-.622472-.646882l-.134258.75673q-.085534.353954-.280723.500418-.195285.134259-.524828.134259h-2.233574V-.000004h3.368668zM117.792275 5.614443V18.19813h-2.074904q-.646882 0-.829962-.585856l-.219696-.878783q-.378365.36616-.78114.671293-.402776.305133-.866578.524829-.451597.219696-.988631.341749-.524829.122053-1.1473.122053-1.025247 0-1.830798-.353954-.793346-.353955-1.33038-.988631-.537035-.634677-.817757-1.51346-.280722-.878783-.280722-1.92844V5.614442h3.368668v7.994485q0 1.049658.476008 1.635513.488213.57365 1.440228.57365.707908 0 1.33038-.305133.62247-.317338 1.183916-.854372V5.614443zM132.241069 5.614443l-6.786159 15.96456q-.158669.341749-.39057.512623-.219696.170875-.707909.170875h-2.50209l2.380037-5.077414-5.053003-11.570644h2.953688q.402775 0 .622471.18308t.317339.427186l2.392242 6.017223q.134259.353955.231902.720114.109847.353955.20749.707909.219696-.720114.500418-1.440228l2.221369-6.005018q.097642-.268517.353954-.439391.256312-.170875.561445-.170875z" style="line-height:1.25;-inkscape-font-specification:'Lato Ultra-Bold'" font-weight="800" font-family="Lato"/></g><path d="M10.11985 1.01177A10.119838 10.119838 0 0 0 0 11.13161a10.119838 10.119838 0 0 0 1.20481 4.78124l.88002-.88.58809-.5881 2.08655-2.08657c-1.52055-.30458-2.67464-1.65409-2.67464-3.26102 0-1.8295 1.49588-3.32544 3.32541-3.32544h9.03653l.00077-.00077 2.0661.00001-9.25575 9.25576 1.02766.005h3.7943c-.00077-.002-.003-.004-.004-.005h2.75351c1.03293 0 1.85913-.82619 1.85914-1.85913 0-1.03293-.82621-1.85912-1.85914-1.85912h-2.82061l.70708-.70362 3.37291-3.37295 2.13727-2.13727a10.119838 10.119838 0 0 0-8.10649-4.08247zm8.91551 5.33955l-.8802.88019-2.67463 2.67465c1.52054.30459 2.67462 1.6541 2.67463 3.26105-.00001 1.82951-1.49594 3.32545-3.32543 3.32545l-8.0048-.00001-1.033.00001H3.72582l9.2611-9.26115-1.03246.00076h-3.7943c0 .002.004.004.004.005H5.41065c-1.03294 0-1.8591.82615-1.8591 1.85909 0 1.03293.82616 1.85909 1.8591 1.85909h2.8206l-.70702.70369-2.37729 2.37732-.55427.55424-.44137.44137-2.13693 2.13691a10.119838 10.119838 0 0 0 8.10592 4.08171 10.119838 10.119838 0 0 0 10.11985-10.11985 10.119838 10.119838 0 0 0-1.20435-4.7803z"/></g></svg>